<?xml version="1.0" encoding="UTF-8" standalone="no"?><svg xmlns="http://www.w3.org/2000/svg" xmlns:xlink="http://www.w3.org/1999/xlink" contentScriptType="application/ecmascript" contentStyleType="text/css" height="578px" preserveAspectRatio="none" style="width:647px;height:578px;background:#FFFFFF;" version="1.1" viewBox="0 0 647 578" width="647px" zoomAndPan="magnify"><defs/><g><text fill="#000000" font-family="sans-serif" font-size="18" lengthAdjust="spacing" textLength="81" x="276.75" y="18.6855">Data Flow</text><!--MD5=[b6b7207982b68db46f560888ead706d9]
cluster pi--><polygon fill="#FFFFFF" points="16,28.6406,16,28.8508,25.7273,28.2263,35.4545,28.8339,45.1818,29.0403,54.9091,27.9272,64.6364,28.5629,74.3636,28.2141,84.0909,28.2571,93.8182,28.5725,103.5455,27.9493,113.2727,29.1943,123,28.6406,122.7986,28.5809,124.3368,33.3438,125.938,38.1253,127.1726,42.7981,128.6218,47.5346,130,52.25,130,52.2181,139.9444,52.4285,149.8889,52.4891,159.8333,52.8357,169.7778,52.9211,179.7222,52.9293,189.6667,52.5046,199.6111,52.7136,209.5556,52.9522,219.5,51.5288,229.4444,52.9285,239.3889,51.9535,249.3333,52.7838,259.2778,51.755,269.2222,52.1815,279.1667,52.9916,289.1111,52.2013,299.0556,52.3553,309,52.5886,318.9444,52.6662,328.8889,52.2461,338.8333,52.5372,348.7778,51.6776,358.7222,52.5344,368.6667,52.7982,378.6111,52.6945,388.5556,52.863,398.5,51.7669,408.4444,51.5978,418.3889,51.6286,428.3333,52.1911,438.2778,52.0535,448.2222,52.9314,458.1667,52.0753,468.1111,51.9069,478.0556,52.4783,488,52.25,487.3332,52.25,487.4809,62.3791,488.649,72.5083,488.4357,82.6374,488.7345,92.7665,487.6782,102.8957,488.3192,113.0248,488.5904,123.154,487.5276,133.2831,487.9041,143.4122,488.126,153.5414,488.6518,163.6705,487.9958,173.7996,488.4626,183.9288,487.4462,194.0579,487.3227,204.187,488.5036,214.3162,487.2831,224.4453,488.509,234.5744,488.2066,244.7036,487.7321,254.8327,487.6462,264.9619,488.4588,275.091,487.7007,285.2201,488.5919,295.3493,487.4473,305.4784,488.6174,315.6075,488.4843,325.7367,488.245,335.8658,488.0472,345.9949,488.7266,356.1241,488.6136,366.2532,488.1693,376.3824,488.2682,386.5115,488,396.6406,488,396.5104,477.9574,397.3571,467.9149,396.7955,457.8723,396.8132,447.8298,396.0323,437.7872,396.2354,427.7447,397.1714,417.7021,397.0704,407.6596,396.5977,397.617,396.3185,387.5745,396.4217,377.5319,395.9544,367.4894,397.0554,357.4468,397.3802,347.4043,397.167,337.3617,397.3356,327.3191,396.5039,317.2766,396.7278,307.234,396.253,297.1915,396.9247,287.1489,396.8874,277.1064,397.193,267.0638,396.411,257.0213,396.5062,246.9787,397.0841,236.9362,397.208,226.8936,396.1281,216.8511,396.4467,206.8085,396.7899,196.766,396.0298,186.7234,396.994,176.6809,396.8986,166.6383,396.5399,156.5957,396.7829,146.5532,397.3693,136.5106,396.3278,126.4681,396.9556,116.4255,396.9263,106.383,396.7564,96.3404,396.7815,86.2979,396.7541,76.2553,396.0165,66.2128,396.2398,56.1702,396.1791,46.1277,396.7044,36.0851,396.7288,26.0426,396.8024,16,396.6406,15.709,396.6406,15.9325,386.6947,15.8798,376.7487,16.5769,366.8028,16.4266,356.8568,15.5145,346.9109,15.9271,336.9649,15.4228,327.019,16.2884,317.0731,16.6085,307.1271,16.5446,297.1812,15.5644,287.2352,16.464,277.2893,15.2572,267.3433,16.2002,257.3974,15.7007,247.4514,16.0967,237.5055,16.2403,227.5595,16.4721,217.6136,15.2801,207.6677,16.4755,197.7217,16.1782,187.7758,16.3553,177.8298,16.7478,167.8839,16.0055,157.9379,16.1753,147.992,16.2134,138.046,16.1972,128.1001,15.9992,118.1541,16.7107,108.2082,15.3903,98.2622,16.5653,88.3163,15.376,78.3704,15.4597,68.4244,16.04,58.4785,16.0283,48.5325,15.5072,38.5866,16,28.6406" style="stroke:#000000;stroke-width:1.5;"/><path d="M16,52.25 L16,52.5302 L26.3636,51.6976 L36.7273,52.5077 L47.0909,52.7829 L57.4545,51.2988 L67.8182,52.1464 L78.1818,51.6813 L88.5455,51.7387 L98.9091,52.1591 L109.2727,51.3282 L119.6364,52.9882 L130,52.25 " fill="#FFFFFF" style="stroke:#000000;stroke-width:1.5;"/><text fill="#000000" font-family="sans-serif" font-size="14" font-weight="bold" lengthAdjust="spacing" textLength="101" x="20" y="45.1738">Raspberry Pi 4</text><!--MD5=[7468467f3b6b392f1d176d828c753b77]
entity db--><path d="M199.5,200.6406 L199.5,200.6406 L199.5454,200.7223 L202.5606,198.7297 L205.8417,197.2157 L209.0363,195.5459 L211.946,193.3635 L215.25,191.8906 L215.2473,191.8562 L218.385,191.4517 L221.5365,191.2207 L224.6976,191.1104 L227.8257,190.5843 L231,190.6406 L231,190.6406 L231.0195,190.8859 L234.1278,190.6114 L237.293,191.053 L240.4652,191.582 L243.597,191.6026 L246.75,191.8906 L246.7647,191.9171 L249.8931,193.6282 L253.0885,195.46 L256.2516,197.2335 L259.4764,199.1182 L262.5,200.6406 L263.0965,200.6406 L263.1038,205.9625 L262.7263,211.2844 L262.9121,216.6063 L263.1242,221.9281 L262.5,227.25 L262.5,227.25 L262.3443,226.9698 L259.4965,229.2636 L256.136,230.6348 L253.1652,232.7074 L249.7932,234.0577 L246.75,236 L246.7476,235.9697 L243.6261,236.5786 L240.4483,236.4784 L237.3037,236.7967 L234.1619,237.15 L231,237.25 L231,237.25 L231.0146,237.4344 L227.8499,236.9983 L224.7101,236.8773 L221.5299,236.2464 L218.41,236.376 L215.25,236 L215.3683,236.213 L212.1959,234.4227 L209.0823,232.7382 L205.6957,230.5623 L202.5092,228.7466 L199.5,227.25 L198.9476,227.25 L199.4477,221.9281 L199.3253,216.6063 L200.1057,211.2844 L199.3447,205.9625 L199.5,200.6406 " fill="#F8F8F8" style="stroke:#000000;stroke-width:1.5;"/><path d="M199.5,200.6406 L199.5,200.6406 L199.5454,200.7223 L202.5606,202.2297 L205.8417,204.2157 L209.0363,206.0459 L211.946,207.3635 L215.25,209.3906 L215.2473,209.3562 L218.385,209.4517 L221.5365,209.7207 L224.6976,210.1104 L227.8257,210.0843 L231,210.6406 L231,210.6406 L231.0195,210.8859 L234.1278,210.1114 L237.293,210.053 L240.4652,210.082 L243.597,209.6026 L246.75,209.3906 L246.7647,209.4171 L249.8931,207.6282 L253.0885,205.96 L256.2516,204.2335 L259.4764,202.6182 L262.5,200.6406 " fill="none" style="stroke:#000000;stroke-width:1.5;"/><text fill="#000000" font-family="sans-serif" font-size="14" lengthAdjust="spacing" textLength="43" x="209.5" y="229.1738">SQLite</text><!--MD5=[1efad2a5399e22ca699c44f97cb39c39]
entity batch1--><polygon fill="#F8F8F8" points="233,74.6406,233.0495,74.6902,234.9023,72.543,237.0456,70.6862,239.0942,68.7348,240.8319,66.4725,243,64.6406,243,64.5629,252.7333,64.2141,262.4667,64.2571,272.2,64.5725,281.9333,63.9493,291.6667,65.1943,301.4,64.0103,311.1333,64.4429,320.8667,65.0726,330.6,64.5548,340.3333,64.7089,350.0667,64.6087,359.8,64.8192,369.5333,64.8798,379.2667,65.2263,389,64.6406,389.6711,64.6406,389.6793,73.8438,389.2546,83.0469,389.4636,92.25,389.7022,101.4531,388.2788,110.6563,389,119.8594,389.1599,120.0193,386.9301,121.7895,385.1258,123.9852,382.8833,125.7427,380.9839,127.8432,379,129.8594,379,130.601,369.2667,129.8106,359.5333,129.9647,349.8,130.198,340.0667,130.2756,330.3333,129.8555,320.6,130.1466,310.8667,129.287,301.1333,130.1438,291.4,130.4076,281.6667,130.3039,271.9333,130.4724,262.2,129.3763,252.4667,129.2072,242.7333,129.238,233,129.8594,232.9411,129.8594,232.8035,120.6563,233.6814,111.4531,232.8253,102.25,232.6569,93.0469,233.2283,83.8438,233,74.6406" style="stroke:#000000;stroke-width:1.5;"/><path d="M379,74.6406 L379.0661,74.7067 L380.8698,72.5104 L383.0607,70.7014 L385.1256,68.7662 L386.7758,66.4164 L389,64.6406 " fill="#F8F8F8" style="stroke:#000000;stroke-width:1.5;"/><path d="M233,74.6406 L233,74.9209 L242.7333,74.0882 L252.4667,74.8983 L262.2,75.1735 L271.9333,73.6894 L281.6667,74.537 L291.4,74.072 L301.1333,74.1293 L310.8667,74.5497 L320.6,73.7188 L330.3333,75.3788 L340.0667,73.8003 L349.8,74.3769 L359.5333,75.2166 L369.2667,74.5263 L379,74.6406 " fill="#F8F8F8" style="stroke:#000000;stroke-width:1.5;"/><path d="M379,74.6406 L379.2802,74.6406 L378.4476,83.8438 L379.2577,93.0469 L379.5329,102.25 L378.0488,111.4531 L378.8964,120.6563 L379,129.8594 " fill="#F8F8F8" style="stroke:#000000;stroke-width:1.5;"/><text fill="#000000" font-family="sans-serif" font-size="14" lengthAdjust="spacing" textLength="116" x="248" y="99.1738">get and store data</text><text fill="#000000" font-family="sans-serif" font-size="14" lengthAdjust="spacing" textLength="54" x="248" y="116.7832">(Python)</text><!--MD5=[a41eafc886f4041182328a5b0e08f5f6]
entity file_tmp--><polygon fill="#F8F8F8" points="333.5,195.1406,333.5701,195.1406,333.3619,202.6625,333.5644,210.1844,333.6332,217.7063,333.2622,225.2281,333.5,232.75,333.5,232.6723,343.5833,232.3235,353.6667,232.3665,363.75,232.6818,373.8333,232.0586,383.9167,233.3036,394,232.1197,404.0833,232.5522,414.1667,233.1819,424.25,232.6642,434.3333,232.8182,444.4167,232.7181,454.5,232.75,454.5595,232.75,454.5797,227.2281,454.6952,221.7063,454.7237,216.1844,454.7264,210.6625,454.5,205.1406,454.56,205.2006,452.6093,203.2499,450.6655,201.3061,448.33,198.9706,446.6599,197.3006,444.5,195.1406,444.5,194.8441,434.4091,195.6744,424.3182,194.6456,414.2273,195.0721,404.1364,195.8822,394.0455,195.0919,383.9545,195.2459,373.8636,195.4793,363.7727,195.5569,353.6818,195.1367,343.5909,195.4278,333.5,195.1406" style="stroke:#000000;stroke-width:1.5;"/><path d="M444.5,195.1406 L444.6868,195.1406 L444.1317,197.1406 L444.6718,199.1406 L444.8553,201.1406 L443.8659,203.1406 L444.5,205.1406 L444.5,205.0715 L446.5,204.7615 L448.5,204.7997 L450.5,205.08 L452.5,204.5261 L454.5,205.1406 " fill="#F8F8F8" style="stroke:#000000;stroke-width:1.5;"/><text fill="#000000" font-family="sans-serif" font-size="14" lengthAdjust="spacing" textLength="101" x="343.5" y="219.6738">/tmp/bme_result</text><!--MD5=[3038c01dcd552beee5a7b074706b1197]
entity batch2--><polygon fill="#F8F8F8" points="32,325.6406,32.0495,325.6902,33.9023,323.543,36.0456,321.6862,38.0942,319.7348,39.8319,317.4725,42,315.6406,42,315.5629,51.7778,315.2141,61.5556,315.2571,71.3333,315.5725,81.1111,314.9493,90.8889,316.1943,100.6667,315.0103,110.4444,315.4429,120.2222,316.0726,130,315.5548,139.7778,315.7089,149.5556,315.6087,159.3333,315.8192,169.1111,315.8798,178.8889,316.2263,188.6667,316.3117,198.4444,316.3199,208.2222,315.8953,218,315.6406,218.4636,315.6406,218.7022,324.8438,217.2788,334.0469,218.6785,343.25,217.7035,352.4531,218.5338,361.6563,218,370.8594,217.8833,370.7427,215.9839,372.8432,214.1748,375.0342,211.9885,376.8479,210.0248,378.8842,208,380.8594,208,381.198,198.2222,381.2756,188.4444,380.8555,178.6667,381.1466,168.8889,380.287,159.1111,381.1438,149.3333,381.4076,139.5556,381.3039,129.7778,381.4724,120,380.3763,110.2222,380.2072,100.4444,380.238,90.6667,380.8005,80.8889,380.6628,71.1111,381.5408,61.3333,380.6847,51.5556,380.5163,41.7778,381.0876,32,380.8594,31.3332,380.8594,31.4809,371.6563,32.649,362.4531,32.4357,353.25,32.7345,344.0469,31.6782,334.8438,32,325.6406" style="stroke:#000000;stroke-width:1.5;"/><path d="M208,325.6406 L208.0661,325.7067 L209.8698,323.5104 L212.0607,321.7014 L214.1256,319.7662 L215.7758,317.4164 L218,315.6406 " fill="#F8F8F8" style="stroke:#000000;stroke-width:1.5;"/><path d="M32,325.6406 L32,325.9209 L41.7778,325.0882 L51.5556,325.8983 L61.3333,326.1735 L71.1111,324.6894 L80.8889,325.537 L90.6667,325.072 L100.4444,325.1293 L110.2222,325.5497 L120,324.7188 L129.7778,326.3788 L139.5556,324.8003 L149.3333,325.3769 L159.1111,326.2166 L168.8889,325.5263 L178.6667,325.7316 L188.4444,325.598 L198.2222,325.8787 L208,325.6406 " fill="#F8F8F8" style="stroke:#000000;stroke-width:1.5;"/><path d="M208,325.6406 L208.2802,325.6406 L207.4476,334.8438 L208.2577,344.0469 L208.5329,353.25 L207.0488,362.4531 L207.8964,371.6563 L208,380.8594 " fill="#F8F8F8" style="stroke:#000000;stroke-width:1.5;"/><text fill="#000000" font-family="sans-serif" font-size="14" lengthAdjust="spacing" textLength="146" x="47" y="350.1738">generate line graph file</text><text fill="#000000" font-family="sans-serif" font-size="14" lengthAdjust="spacing" textLength="29" x="47" y="367.7832">(Go)</text><!--MD5=[f879f61e2b5e5900db20bca9a7deb369]
entity file_graph--><polygon fill="#F8F8F8" points="253.5,329.1406,253.5701,329.1406,253.3619,336.6625,253.5644,344.1844,253.6332,351.7063,253.2622,359.2281,253.5,366.75,253.5,366.6723,263.375,366.3235,273.25,366.3665,283.125,366.6818,293,366.0586,302.875,367.3036,312.75,366.1197,322.625,366.5522,332.5,366.75,332.644,366.75,332.4714,361.2281,332.5227,355.7063,332.4894,350.1844,332.5595,344.6625,332.5,339.1406,332.5564,339.197,330.638,337.2787,328.6582,335.2988,326.6601,333.3007,324.56,331.2006,322.5,329.1406,322.5,329.6042,312.6429,329.8429,302.7857,328.4194,292.9286,329.8191,283.0714,328.8441,273.2143,329.6744,263.3571,328.6456,253.5,329.1406" style="stroke:#000000;stroke-width:1.5;"/><path d="M322.5,329.1406 L322.6868,329.1406 L322.1317,331.1406 L322.6718,333.1406 L322.8553,335.1406 L321.8659,337.1406 L322.5,339.1406 L322.5,339.0715 L324.5,338.7615 L326.5,338.7997 L328.5,339.08 L330.5,338.5261 L332.5,339.1406 " fill="#F8F8F8" style="stroke:#000000;stroke-width:1.5;"/><text fill="#000000" font-family="sans-serif" font-size="14" lengthAdjust="spacing" textLength="59" x="263.5" y="353.6738">graph file</text><!--MD5=[7f5370521095dc353e6ded589138aa71]
entity batch3--><polygon fill="#F8F8F8" points="368,325.6406,368.0495,325.6902,369.9023,323.543,372.0456,321.6862,374.0942,319.7348,375.8319,317.4725,378,315.6406,378,315.5629,388.4444,315.2141,398.8889,315.2571,409.3333,315.5725,419.7778,314.9493,430.2222,316.1943,440.6667,315.0103,451.1111,315.4429,461.5556,316.0726,472,315.6406,471.9142,315.6406,472.0682,324.8438,471.9681,334.0469,472.1785,343.25,472.2391,352.4531,472.5857,361.6563,472,370.8594,472.1582,371.0175,470.1601,373.0195,468.06,374.9194,466.1093,376.9686,464.1655,379.0249,462,380.8594,462,380.1382,451.5556,381.5379,441.1111,380.5629,430.6667,381.3932,420.2222,380.3644,409.7778,380.7909,399.3333,381.601,388.8889,380.8106,378.4444,380.9647,368,380.8594,368.3386,380.8594,368.4162,371.6563,367.9961,362.4531,368.2872,353.25,367.4276,344.0469,368.2844,334.8438,368,325.6406" style="stroke:#000000;stroke-width:1.5;"/><path d="M462,325.6406 L462.0661,325.7067 L463.8698,323.5104 L466.0607,321.7014 L468.1256,319.7662 L469.7758,317.4164 L472,315.6406 " fill="#F8F8F8" style="stroke:#000000;stroke-width:1.5;"/><path d="M368,325.6406 L368,325.9209 L378.4444,325.0882 L388.8889,325.8983 L399.3333,326.1735 L409.7778,324.6894 L420.2222,325.537 L430.6667,325.072 L441.1111,325.1293 L451.5556,325.5497 L462,325.6406 " fill="#F8F8F8" style="stroke:#000000;stroke-width:1.5;"/><path d="M462,325.6406 L462.2802,325.6406 L461.4476,334.8438 L462.2577,344.0469 L462.5329,353.25 L461.0488,362.4531 L461.8964,371.6563 L462,380.8594 " fill="#F8F8F8" style="stroke:#000000;stroke-width:1.5;"/><text fill="#000000" font-family="sans-serif" font-size="14" lengthAdjust="spacing" textLength="64" x="383" y="350.1738">post tweet</text><text fill="#000000" font-family="sans-serif" font-size="14" lengthAdjust="spacing" textLength="54" x="383" y="367.7832">(Python)</text><!--MD5=[ec9b5bef81a28427a4899a59f16b5de8]
entity twitter_app--><polygon fill="#F8F8F8" points="552.0442,505.0865,550.8715,506.6888,549.4845,509.0357,547.5008,510.6173,545.4163,511.4822,543.7542,511.5572,541.618,510.4756,539.6023,509.7689,538.0724,508.3342,537.2699,506.6917,536.7939,505.3839,536.3277,503.6757,535.5709,502.2057,536.1525,500.7704,536.662,499.1982,538.574,497.9548,539.9192,496.3414,541.5843,495.8057,543.5637,495.3443,546.1021,495.6184,547.4924,496.2741,549.1089,496.5713,551.0743,498.585,551.7595,500.7108,552.0571,502.1612,551.72,504.5514" style="stroke:#383838;stroke-width:1.5;"/><path d="M544,511.1406 L544.1868,511.1406 L543.6317,516.5406 L544.1718,521.9406 L544.3553,527.3406 L543.3659,532.7406 L544,538.1406 M531,519.1406 L531,519.0715 L536.2,518.7615 L541.4,518.7997 L546.6,519.08 L551.8,518.5261 L557,519.1406 M544,538.1406 L544.3719,538.4629 L540.9766,540.7737 L538.6672,544.0255 L536.4901,547.3921 L533.5424,550.0907 L531,553.1406 M544,538.1406 L544.0458,538.1804 L546.5785,541.122 L549.3199,544.2446 L551.9606,547.2798 L554.7934,550.4816 L557,553.1406 " fill="none" style="stroke:#383838;stroke-width:1.5;"/><text fill="#000000" font-family="sans-serif" font-size="14" lengthAdjust="spacing" textLength="70" x="509" y="570.1738">Twitter app</text><!--MD5=[0ed4cc9afe6600d6fd2181c977a0ad8a]
entity bme280--><polygon fill="#F8F8F8" points="537.5,74.6406,537.5495,74.6902,539.4023,72.543,541.5456,70.6862,543.5942,68.7348,545.3319,66.4725,547.5,64.6406,547.5,64.5629,557.875,64.2141,568.25,64.2571,578.625,64.5725,589,63.9493,599.375,65.1943,609.75,64.0103,620.125,64.4429,630.5,64.6406,630.9319,64.6406,630.4142,73.8438,630.5682,83.0469,630.4681,92.25,630.6785,101.4531,630.7391,110.6563,630.5,119.8594,630.638,119.9974,628.6582,122.0175,626.6601,124.0195,624.56,125.9194,622.6093,127.9686,620.5,129.8594,620.5,130.5616,610.125,129.1382,599.75,130.5379,589.375,129.5629,579,130.3932,568.625,129.3644,558.25,129.7909,547.875,130.601,537.5,129.8594,537.4513,129.8594,537.6053,120.6563,537.8386,111.4531,537.9162,102.25,537.4961,93.0469,537.7872,83.8438,537.5,74.6406" style="stroke:#000000;stroke-width:1.5;"/><path d="M620.5,74.6406 L620.5661,74.7067 L622.3698,72.5104 L624.5607,70.7014 L626.6256,68.7662 L628.2758,66.4164 L630.5,64.6406 " fill="#F8F8F8" style="stroke:#000000;stroke-width:1.5;"/><path d="M537.5,74.6406 L537.5,74.9209 L547.875,74.0882 L558.25,74.8983 L568.625,75.1735 L579,73.6894 L589.375,74.537 L599.75,74.072 L610.125,74.1293 L620.5,74.6406 " fill="#F8F8F8" style="stroke:#000000;stroke-width:1.5;"/><path d="M620.5,74.6406 L620.7802,74.6406 L619.9476,83.8438 L620.7577,93.0469 L621.0329,102.25 L619.5488,111.4531 L620.3964,120.6563 L620.5,129.8594 " fill="#F8F8F8" style="stroke:#000000;stroke-width:1.5;"/><text fill="#000000" font-family="sans-serif" font-size="14" lengthAdjust="spacing" textLength="51" x="552.5" y="99.1738">bme280</text><text fill="#000000" font-family="sans-serif" font-size="14" lengthAdjust="spacing" textLength="53" x="552.5" y="116.7832">(sensor)</text><!--MD5=[80c8e4f8e52f01c3b1e028756bd64205]
entity twitter_api--><polygon fill="#F8F8F8" points="366.5,519.6406,366.5495,519.6902,368.4023,517.543,370.5456,515.6862,372.5942,513.7348,374.3319,511.4725,376.5,509.6406,376.5,509.5629,386.2,509.2141,395.9,509.2571,405.6,509.5725,415.3,508.9493,425,510.1943,434.7,509.0103,444.4,509.4429,454.1,510.0726,463.8,509.5548,473.5,509.6406,473.5227,509.6406,473.4894,517.1625,473.5595,524.6844,473.5797,532.2063,473.6952,539.7281,473.5,547.25,473.6582,547.4082,471.6601,549.4101,469.56,551.31,467.6093,553.3593,465.6655,555.4155,463.5,557.25,463.5,556.5288,453.8,557.9285,444.1,556.9535,434.4,557.7838,424.7,556.755,415,557.1815,405.3,557.9916,395.6,557.2013,385.9,557.3553,376.2,557.5886,366.5,557.25,366.6387,557.25,366.4987,549.7281,366.5957,542.2063,366.3092,534.6844,366.5948,527.1625,366.5,519.6406" style="stroke:#000000;stroke-width:1.5;"/><path d="M463.5,519.6406 L463.5661,519.7067 L465.3698,517.5104 L467.5607,515.7014 L469.6256,513.7662 L471.2758,511.4164 L473.5,509.6406 " fill="#F8F8F8" style="stroke:#000000;stroke-width:1.5;"/><path d="M366.5,519.6406 L366.5,519.9209 L376.2,519.0882 L385.9,519.8983 L395.6,520.1735 L405.3,518.6894 L415,519.537 L424.7,519.072 L434.4,519.1293 L444.1,519.5497 L453.8,518.7188 L463.5,519.6406 " fill="#F8F8F8" style="stroke:#000000;stroke-width:1.5;"/><path d="M463.5,519.6406 L463.5934,519.6406 L463.3159,527.1625 L463.5859,534.6844 L463.6776,542.2063 L463.1829,549.7281 L463.5,557.25 " fill="#F8F8F8" style="stroke:#000000;stroke-width:1.5;"/><text fill="#000000" font-family="sans-serif" font-size="14" lengthAdjust="spacing" textLength="67" x="381.5" y="544.1738">Twitter API</text><!--MD5=[e818a57976f2515016ad900cb4d23e45]
link twitter_api to twitter_app--><path d="M473.77,533.6406 L473.77,533.734 L479.75,533.4565 L485.73,533.7265 L491.71,533.8183 L497.69,533.3236 L503.67,533.6406 " fill="none" style="stroke:#383838;stroke-width:1.0;"/><polygon fill="#383838" points="508.88,533.6406,508.9085,533.7046,507.0239,532.7144,505.3062,532.0995,503.5341,531.3624,501.5834,530.2233,499.88,529.6406,499.8617,529.6223,500.5795,530.3401,501.3896,531.1502,502.2639,532.0246,502.917,532.6777,503.88,533.6406,504.0105,533.7711,502.9314,534.2921,502.2334,535.194,501.5818,536.1424,500.6598,536.8204,499.88,537.6406,499.8892,537.6614,501.6757,536.8309,503.5042,536.095,505.3124,535.3135,507.1593,534.619,508.88,533.6406" style="stroke:#383838;stroke-width:1.0;"/><!--MD5=[85f22de3b6ffab2d979483f69ae49e8c]
link bme280 to batch1--><path d="M537.4,97.1406 L537.4,97.4209 L527.18,96.5882 L516.96,97.3983 L506.74,97.6735 L496.52,96.1894 L486.3,97.037 L476.08,96.572 L465.86,96.6293 L455.64,97.0497 L445.42,96.2188 L435.2,97.8788 L424.98,96.3003 L414.76,96.8769 L404.54,97.7166 L394.32,97.1406 " fill="none" style="stroke:#383838;stroke-width:1.0;"/><polygon fill="#383838" points="389.23,97.1406,389.2585,97.2046,390.9739,97.8144,392.8562,98.7995,394.6841,99.6624,396.3334,100.1233,398.23,101.1406,398.2117,101.1223,397.3295,100.2401,396.5396,99.4502,395.8139,98.7246,394.867,97.7777,394.23,97.1406,394.3605,97.2711,394.8814,96.1921,395.7834,95.494,396.7318,94.8424,397.4098,93.9204,398.23,93.1406,398.2392,93.1614,396.4257,93.9309,394.6542,94.795,392.8624,95.6135,391.1093,96.519,389.23,97.1406" style="stroke:#383838;stroke-width:1.0;"/><text fill="#000000" font-family="sans-serif" font-size="13" lengthAdjust="spacing" textLength="112" x="407.25" y="74.6357">temp/pressure/hum</text><text fill="#000000" font-family="sans-serif" font-size="13" lengthAdjust="spacing" textLength="106" x="410.25" y="90.9873">(am 9:00/pm 6:00)</text><!--MD5=[cc176296f0786d623b03fb8eb9fe6096]
link batch1 to db--><path d="M288.93,129.8706 L289.1601,130.0307 L282.8537,137.638 L277.8958,146.1835 L272.4989,154.4235 L265.6577,161.6589 L260.7307,170.2257 L254.726,178.043 L249.57,186.4506 " fill="none" style="stroke:#383838;stroke-width:1.0;"/><polygon fill="#383838" points="246.66,190.6206,246.6964,190.6805,248.2721,189.4804,250.0611,188.6314,251.7806,187.6681,253.2718,186.3288,255.079,185.5099,255.0744,185.4844,253.9404,185.5707,252.8295,185.7856,251.7348,186.0899,250.5845,186.0862,249.512,186.5138,249.6936,186.5465,249.1044,185.3631,249.0455,184.2753,249.0513,183.1991,248.6807,182.0551,248.5081,180.9467,248.5304,180.951,248.128,182.8795,247.8273,184.8274,247.4775,186.766,247.2214,188.7225,246.66,190.6206" style="stroke:#383838;stroke-width:1.0;"/><!--MD5=[b2a155d21346db99880e32b9701b0f22]
link batch1 to file_tmp--><path d="M333.9,129.8706 L334.1272,130.0346 L338.9546,137.1711 L345.114,145.269 L350.8396,153.0538 L355.1387,159.8089 L361.3285,167.9287 L366.4539,175.2803 L372.0029,182.9376 L377.92,190.8606 " fill="none" style="stroke:#383838;stroke-width:1.0;"/><polygon fill="#383838" points="380.99,195.1106,381.0586,195.125,380.45,193.1545,380.2434,191.2684,379.9059,189.3548,379.1379,187.3509,378.9658,185.472,378.9402,185.4679,378.645,186.5662,378.4787,187.6854,378.402,188.8191,378.0165,189.9028,378.0636,191.0565,378.093,191.2387,376.9132,190.6686,375.8193,190.6305,374.7359,190.6573,373.5915,190.3065,372.4791,190.1543,372.4906,190.1739,374.176,191.1364,375.9134,192.1882,377.6258,193.197,379.3861,194.2881,380.99,195.1106" style="stroke:#383838;stroke-width:1.0;"/><!--MD5=[76960a909b70193f5170820333fe111d]
link db to batch2--><path d="M212.78,237.8306 L212.9985,238.0061 L205.7871,245.6558 L199.8565,254.3342 L193.5088,262.6776 L185.7895,269.9195 L179.8881,278.6213 L172.9633,286.5012 L166.4458,294.7082 L160.2114,303.1426 L153.72,311.3706 " fill="none" style="stroke:#383838;stroke-width:1.0;"/><polygon fill="#383838" points="150.52,315.3706,150.5521,315.4329,152.207,314.3444,154.0503,313.6209,155.8322,312.7786,157.4124,311.5455,159.2718,310.8533,159.269,310.8275,158.1317,310.8354,157.0086,310.9731,155.8955,311.201,154.7482,311.118,153.6487,311.4705,153.8321,311.4906,153.3164,310.3229,153.3363,309.214,153.4215,308.1123,153.1265,306.9689,153.0315,305.8474,153.0535,305.8532,152.5189,307.7493,152.0845,309.6719,151.6017,311.5817,151.2111,313.5158,150.52,315.3706" style="stroke:#383838;stroke-width:1.0;"/><text fill="#000000" font-family="sans-serif" font-size="13" lengthAdjust="spacing" textLength="61" x="189" y="282.1357">10 records</text><!--MD5=[4a1c9f3b996799af7b1fe8fc71df80fb]
link batch2 to file_graph--><path d="M218.19,348.1406 L218.19,348.234 L224.162,347.9565 L230.134,348.2265 L236.106,348.3183 L242.078,347.8236 L248.05,348.1406 " fill="none" style="stroke:#383838;stroke-width:1.0;"/><polygon fill="#383838" points="253.26,348.1406,253.2885,348.2046,251.4039,347.2144,249.6862,346.5995,247.9141,345.8624,245.9634,344.7233,244.26,344.1406,244.2417,344.1223,244.9595,344.8401,245.7696,345.6502,246.6439,346.5246,247.297,347.1777,248.26,348.1406,248.3905,348.2711,247.3114,348.7921,246.6134,349.694,245.9618,350.6424,245.0398,351.3204,244.26,352.1406,244.2692,352.1614,246.0557,351.3309,247.8842,350.595,249.6924,349.8135,251.5393,349.119,253.26,348.1406" style="stroke:#383838;stroke-width:1.0;"/><!--MD5=[7cece2583a4431866339bef507c3eeb7]
link file_tmp to batch3--><path d="M397.56,233.2206 L397.835,233.2748 L398.9255,242.7963 L401.6279,252.6354 L403.8054,262.3711 L404.2567,271.7668 L406.9958,281.6131 L408.4471,291.2057 L410.4108,300.8993 L412.82,310.6806 " fill="none" style="stroke:#383838;stroke-width:1.0;"/><polygon fill="#383838" points="413.79,315.6106,413.8583,315.6261,414.09,313.6589,414.7222,311.7824,415.224,309.8764,415.2968,307.8733,415.9634,306.0046,415.9419,305.9902,415.2161,306.8658,414.5989,307.8141,414.0571,308.8128,413.2553,309.6376,412.8177,310.7061,412.9203,310.8595,411.7605,309.9023,410.9004,309.393,410.0768,308.9383,409.0406,308.1657,408.1162,307.5603,408.1348,307.5734,409.2422,309.1642,410.4343,310.8147,411.5856,312.4364,412.8148,314.113,413.79,315.6106" style="stroke:#383838;stroke-width:1.0;"/><!--MD5=[00ad73a399a93e3780968ea872e81a01]
link file_graph to batch3--><path d="M332.69,348.1406 L332.69,348.234 L338.672,347.9565 L344.654,348.2265 L350.636,348.3183 L356.618,347.8236 L362.6,348.1406 " fill="none" style="stroke:#383838;stroke-width:1.0;"/><polygon fill="#383838" points="367.82,348.1406,367.8485,348.2046,365.9639,347.2144,364.2462,346.5995,362.4741,345.8624,360.5234,344.7233,358.82,344.1406,358.8017,344.1223,359.5195,344.8401,360.3296,345.6502,361.2039,346.5246,361.857,347.1777,362.82,348.1406,362.9505,348.2711,361.8714,348.7921,361.1734,349.694,360.5218,350.6424,359.5998,351.3204,358.82,352.1406,358.8292,352.1614,360.6157,351.3309,362.4442,350.595,364.2524,349.8135,366.0993,349.119,367.82,348.1406" style="stroke:#383838;stroke-width:1.0;"/><!--MD5=[df1749e30dc178c3c364cbe7949dfbd9]
link batch3 to twitter_api--><path d="M420,380.6806 L420.2802,380.6806 L419.4476,390.9956 L420.2577,401.3106 L420.5329,411.6256 L419.0488,421.9406 L419.8964,432.2556 L419.4313,442.5706 L419.4887,452.8856 L419.9091,463.2006 L419.0782,473.5156 L420.7382,483.8306 L419.1596,494.1456 L420,504.4606 " fill="none" style="stroke:#383838;stroke-width:1.0;"/><polygon fill="#383838" points="420,509.6206,420.064,509.6491,420.6738,507.7645,421.6589,506.0468,422.5217,504.2747,422.9827,502.324,424,500.6206,423.9817,500.6023,423.0995,501.3201,422.3096,502.1302,421.5839,503.0046,420.637,503.6577,420,504.6206,420.1305,504.7511,419.0514,503.6721,418.3534,502.974,417.7018,502.3224,416.7798,501.4004,416,500.6206,416.0208,500.6299,416.7903,502.4163,417.6544,504.2448,418.4728,506.053,419.3784,507.8999,420,509.6206" style="stroke:#383838;stroke-width:1.0;"/><text fill="#000000" font-family="sans-serif" font-size="13" lengthAdjust="spacing" textLength="112" x="421" y="427.1357">temp/pressure/hum</text><text fill="#000000" font-family="sans-serif" font-size="13" lengthAdjust="spacing" textLength="9" x="472.5" y="443.4873">&amp;</text><text fill="#000000" font-family="sans-serif" font-size="13" lengthAdjust="spacing" textLength="52" x="451" y="459.8389">graph file</text><!--MD5=[57e7f0d31bed195a90dabd37c01765cf]
@startuml

!include ./skin.pu

title "Data Flow"

actor "Twitter app" as twitter_app

node "bme280\n(sensor)" as bme280
node "Twitter API" as twitter_api
twitter_api -> twitter_app

package "Raspberry Pi 4" as pi {
  database "SQLite" as db
  node "get and store data\n(Python)" as batch1
  file "/tmp/bme_result" as file_tmp
  bme280 -> batch1: "temp/pressure/hum\n(am 9:00/pm 6:00)"
  batch1 - -> db
  batch1 - -> file_tmp

  node "generate line graph file\n(Go)" as batch2
  db - -> batch2: "10 records"
  file "graph file" as file_graph
  batch2 -> file_graph

  node "post tweet\n(Python)" as batch3
  file_tmp - -> batch3
  file_graph -> batch3
  batch3 - -> twitter_api: "temp/pressure/hum\n&\ngraph file"
}

@enduml

@startuml


skinparam monochrome true

skinparam shadowing false

skinparam handwritten true


title "Data Flow"

actor "Twitter app" as twitter_app

node "bme280\n(sensor)" as bme280
node "Twitter API" as twitter_api
twitter_api -> twitter_app

package "Raspberry Pi 4" as pi {
  database "SQLite" as db
  node "get and store data\n(Python)" as batch1
  file "/tmp/bme_result" as file_tmp
  bme280 -> batch1: "temp/pressure/hum\n(am 9:00/pm 6:00)"
  batch1 - -> db
  batch1 - -> file_tmp

  node "generate line graph file\n(Go)" as batch2
  db - -> batch2: "10 records"
  file "graph file" as file_graph
  batch2 -> file_graph

  node "post tweet\n(Python)" as batch3
  file_tmp - -> batch3
  file_graph -> batch3
  batch3 - -> twitter_api: "temp/pressure/hum\n&\ngraph file"
}

@enduml

PlantUML version 1.2022.0(Wed Jan 12 01:16:42 JST 2022)
(GPL source distribution)
Java Runtime: Java(TM) SE Runtime Environment
JVM: Java HotSpot(TM) 64-Bit Server VM
Default Encoding: MS932
Language: ja
Country: JP
--></g></svg>