<?xml version="1.0" encoding="UTF-8" standalone="no"?><svg xmlns="http://www.w3.org/2000/svg" xmlns:xlink="http://www.w3.org/1999/xlink" contentScriptType="application/ecmascript" contentStyleType="text/css" height="595px" preserveAspectRatio="none" style="width:618px;height:595px;background:#FFFFFF;" version="1.1" viewBox="0 0 618 595" width="618px" zoomAndPan="magnify"><defs/><g><text fill="#000000" font-family="sans-serif" font-size="18" lengthAdjust="spacing" textLength="81" x="262.25" y="18.6855">Data Flow</text><!--MD5=[b6b7207982b68db46f560888ead706d9]
cluster pi--><polygon fill="#FFFFFF" points="16,28.6406,16,28.8508,25.7273,28.2263,35.4545,28.8339,45.1818,29.0403,54.9091,27.9272,64.6364,28.5629,74.3636,28.2141,84.0909,28.2571,93.8182,28.5725,103.5455,27.9493,113.2727,29.1943,123,28.6406,122.7986,28.5809,124.3368,33.3438,125.938,38.1253,127.1726,42.7981,128.6218,47.5346,130,52.25,130,52.2181,139.9444,52.4285,149.8889,52.4891,159.8333,52.8357,169.7778,52.9211,179.7222,52.9293,189.6667,52.5046,199.6111,52.7136,209.5556,52.9522,219.5,51.5288,229.4444,52.9285,239.3889,51.9535,249.3333,52.7838,259.2778,51.755,269.2222,52.1815,279.1667,52.9916,289.1111,52.2013,299.0556,52.3553,309,52.5886,318.9444,52.6662,328.8889,52.2461,338.8333,52.5372,348.7778,51.6776,358.7222,52.5344,368.6667,52.7982,378.6111,52.6945,388.5556,52.863,398.5,51.7669,408.4444,51.5978,418.3889,51.6286,428.3333,52.1911,438.2778,52.0535,448.2222,52.9314,458.1667,52.0753,468.1111,51.9069,478.0556,52.4783,488,52.25,487.3332,52.25,487.4809,62.2886,488.649,72.3273,488.4357,82.3659,488.7345,92.4045,487.6782,102.4431,488.3192,112.4818,488.5904,122.5204,487.5276,132.559,487.9041,142.5977,488.126,152.6363,488.6518,162.6749,487.9958,172.7135,488.4626,182.7522,487.4462,192.7908,487.3227,202.8294,488.5036,212.8681,487.2831,222.9067,488.509,232.9453,488.2066,242.9839,487.7321,253.0226,487.6462,263.0612,488.4588,273.0998,487.7007,283.1385,488.5919,293.1771,487.4473,303.2157,488.6174,313.2543,488.4843,323.293,488.245,333.3316,488.0472,343.3702,488.7266,353.4089,488.6136,363.4475,488.1693,373.4861,488.2682,383.5247,487.8697,393.5634,488.7165,403.602,488,413.6406,488,413.7955,477.9574,413.8132,467.9149,413.0323,457.8723,413.2354,447.8298,414.1714,437.7872,414.0704,427.7447,413.5977,417.7021,413.3185,407.6596,413.4217,397.617,412.9544,387.5745,414.0554,377.5319,414.3802,367.4894,414.167,357.4468,414.3356,347.4043,413.5039,337.3617,413.7278,327.3191,413.253,317.2766,413.9247,307.234,413.8874,297.1915,414.193,287.1489,413.411,277.1064,413.5062,267.0638,414.0841,257.0213,414.208,246.9787,413.1281,236.9362,413.4467,226.8936,413.7899,216.8511,413.0298,206.8085,413.994,196.766,413.8986,186.7234,413.5399,176.6809,413.7829,166.6383,414.3693,156.5957,413.3278,146.5532,413.9556,136.5106,413.9263,126.4681,413.7564,116.4255,413.7815,106.383,413.7541,96.3404,413.0165,86.2979,413.2398,76.2553,413.1791,66.2128,413.7044,56.1702,413.7288,46.1277,413.8024,36.0851,413.3496,26.0426,413.5731,16,413.6406,15.8798,413.6406,16.5769,403.7688,16.4266,393.897,15.5145,384.0252,15.9271,374.1534,15.4228,364.2817,16.2884,354.4099,16.6085,344.5381,16.5446,334.6663,15.5644,324.7945,16.464,314.9227,15.2572,305.0509,16.2002,295.1791,15.7007,285.3073,16.0967,275.4355,16.2403,265.5637,16.4721,255.6919,15.2801,245.8201,16.4755,235.9483,16.1782,226.0765,16.3553,216.2047,16.7478,206.3329,16.0055,196.4611,16.1753,186.5893,16.2134,176.7175,16.1972,166.8458,15.9992,156.974,16.7107,147.1022,15.3903,137.2304,16.5653,127.3586,15.376,117.4868,15.4597,107.615,16.04,97.7432,16.0283,87.8714,15.5072,77.9996,16.4137,68.1278,16.1089,58.256,16.7267,48.3842,16.6671,38.5124,16,28.6406" style="stroke:#000000;stroke-width:1.5;"/><path d="M16,52.25 L16,52.5302 L26.3636,51.6976 L36.7273,52.5077 L47.0909,52.7829 L57.4545,51.2988 L67.8182,52.1464 L78.1818,51.6813 L88.5455,51.7387 L98.9091,52.1591 L109.2727,51.3282 L119.6364,52.9882 L130,52.25 " fill="#FFFFFF" style="stroke:#000000;stroke-width:1.5;"/><text fill="#000000" font-family="sans-serif" font-size="14" font-weight="bold" lengthAdjust="spacing" textLength="101" x="20" y="45.1738">Raspberry Pi 4</text><!--MD5=[7468467f3b6b392f1d176d828c753b77]
entity db--><path d="M250.5,217.6406 L250.5,217.6406 L250.5454,217.7223 L253.5606,215.7297 L256.8417,214.2157 L260.0363,212.5459 L262.946,210.3635 L266.25,208.8906 L266.2473,208.8562 L269.385,208.4517 L272.5365,208.2207 L275.6976,208.1104 L278.8257,207.5843 L282,207.6406 L282,207.6406 L282.0195,207.8859 L285.1278,207.6114 L288.293,208.053 L291.4652,208.582 L294.597,208.6026 L297.75,208.8906 L297.7647,208.9171 L300.8931,210.6282 L304.0885,212.46 L307.2516,214.2335 L310.4764,216.1182 L313.5,217.6406 L314.0965,217.6406 L314.1038,222.9625 L313.7263,228.2844 L313.9121,233.6063 L314.1242,238.9281 L313.5,244.25 L313.5,244.25 L313.3443,243.9698 L310.4965,246.2636 L307.136,247.6348 L304.1652,249.7074 L300.7932,251.0577 L297.75,253 L297.7476,252.9697 L294.6261,253.5786 L291.4483,253.4784 L288.3037,253.7967 L285.1619,254.15 L282,254.25 L282,254.25 L282.0146,254.4344 L278.8499,253.9983 L275.7101,253.8773 L272.5299,253.2464 L269.41,253.376 L266.25,253 L266.3683,253.213 L263.1959,251.4227 L260.0823,249.7382 L256.6957,247.5623 L253.5092,245.7466 L250.5,244.25 L249.9476,244.25 L250.4477,238.9281 L250.3253,233.6063 L251.1057,228.2844 L250.3447,222.9625 L250.5,217.6406 " fill="#F8F8F8" style="stroke:#000000;stroke-width:1.5;"/><path d="M250.5,217.6406 L250.5,217.6406 L250.5454,217.7223 L253.5606,219.2297 L256.8417,221.2157 L260.0363,223.0459 L262.946,224.3635 L266.25,226.3906 L266.2473,226.3562 L269.385,226.4517 L272.5365,226.7207 L275.6976,227.1104 L278.8257,227.0843 L282,227.6406 L282,227.6406 L282.0195,227.8859 L285.1278,227.1114 L288.293,227.053 L291.4652,227.082 L294.597,226.6026 L297.75,226.3906 L297.7647,226.4171 L300.8931,224.6282 L304.0885,222.96 L307.2516,221.2335 L310.4764,219.6182 L313.5,217.6406 " fill="none" style="stroke:#000000;stroke-width:1.5;"/><text fill="#000000" font-family="sans-serif" font-size="14" lengthAdjust="spacing" textLength="43" x="260.5" y="246.1738">SQLite</text><!--MD5=[1efad2a5399e22ca699c44f97cb39c39]
entity batch1--><polygon fill="#F8F8F8" points="204,74.6406,204.0495,74.6902,205.9023,72.543,208.0456,70.6862,210.0942,68.7348,211.8319,66.4725,214,64.6406,214,64.5629,223.7333,64.2141,233.4667,64.2571,243.2,64.5725,252.9333,63.9493,262.6667,65.1943,272.4,64.0103,282.1333,64.4429,291.8667,65.0726,301.6,64.5548,311.3333,64.7089,321.0667,64.6087,330.8,64.8192,340.5333,64.8798,350.2667,65.2263,360,64.6406,360.6711,64.6406,360.6793,73.8438,360.2546,83.0469,360.4636,92.25,360.7022,101.4531,359.2788,110.6563,360,119.8594,360.1599,120.0193,357.9301,121.7895,356.1258,123.9852,353.8833,125.7427,351.9839,127.8432,350,129.8594,350,130.601,340.2667,129.8106,330.5333,129.9647,320.8,130.198,311.0667,130.2756,301.3333,129.8555,291.6,130.1466,281.8667,129.287,272.1333,130.1438,262.4,130.4076,252.6667,130.3039,242.9333,130.4724,233.2,129.3763,223.4667,129.2072,213.7333,129.238,204,129.8594,203.9411,129.8594,203.8035,120.6563,204.6814,111.4531,203.8253,102.25,203.6569,93.0469,204.2283,83.8438,204,74.6406" style="stroke:#000000;stroke-width:1.5;"/><path d="M350,74.6406 L350.0661,74.7067 L351.8698,72.5104 L354.0607,70.7014 L356.1256,68.7662 L357.7758,66.4164 L360,64.6406 " fill="#F8F8F8" style="stroke:#000000;stroke-width:1.5;"/><path d="M204,74.6406 L204,74.9209 L213.7333,74.0882 L223.4667,74.8983 L233.2,75.1735 L242.9333,73.6894 L252.6667,74.537 L262.4,74.072 L272.1333,74.1293 L281.8667,74.5497 L291.6,73.7188 L301.3333,75.3788 L311.0667,73.8003 L320.8,74.3769 L330.5333,75.2166 L340.2667,74.5263 L350,74.6406 " fill="#F8F8F8" style="stroke:#000000;stroke-width:1.5;"/><path d="M350,74.6406 L350.2802,74.6406 L349.4476,83.8438 L350.2577,93.0469 L350.5329,102.25 L349.0488,111.4531 L349.8964,120.6563 L350,129.8594 " fill="#F8F8F8" style="stroke:#000000;stroke-width:1.5;"/><text fill="#000000" font-family="sans-serif" font-size="14" lengthAdjust="spacing" textLength="116" x="219" y="99.1738">get and store data</text><text fill="#000000" font-family="sans-serif" font-size="14" lengthAdjust="spacing" textLength="54" x="219" y="116.7832">(Python)</text><!--MD5=[3038c01dcd552beee5a7b074706b1197]
entity batch2--><polygon fill="#F8F8F8" points="32,342.6406,32.0495,342.6902,33.9023,340.543,36.0456,338.6862,38.0942,336.7348,39.8319,334.4725,42,332.6406,42,332.5629,51.7778,332.2141,61.5556,332.2571,71.3333,332.5725,81.1111,331.9493,90.8889,333.1943,100.6667,332.0103,110.4444,332.4429,120.2222,333.0726,130,332.5548,139.7778,332.7089,149.5556,332.6087,159.3333,332.8192,169.1111,332.8798,178.8889,333.2263,188.6667,333.3117,198.4444,333.3199,208.2222,332.8953,218,332.6406,218.4636,332.6406,218.7022,341.8438,217.2788,351.0469,218.6785,360.25,217.7035,369.4531,218.5338,378.6563,218,387.8594,217.8833,387.7427,215.9839,389.8432,214.1748,392.0342,211.9885,393.8479,210.0248,395.8842,208,397.8594,208,398.198,198.2222,398.2756,188.4444,397.8555,178.6667,398.1466,168.8889,397.287,159.1111,398.1438,149.3333,398.4076,139.5556,398.3039,129.7778,398.4724,120,397.3763,110.2222,397.2072,100.4444,397.238,90.6667,397.8005,80.8889,397.6628,71.1111,398.5408,61.3333,397.6847,51.5556,397.5163,41.7778,398.0876,32,397.8594,31.3332,397.8594,31.4809,388.6563,32.649,379.4531,32.4357,370.25,32.7345,361.0469,31.6782,351.8438,32,342.6406" style="stroke:#000000;stroke-width:1.5;"/><path d="M208,342.6406 L208.0661,342.7067 L209.8698,340.5104 L212.0607,338.7014 L214.1256,336.7662 L215.7758,334.4164 L218,332.6406 " fill="#F8F8F8" style="stroke:#000000;stroke-width:1.5;"/><path d="M32,342.6406 L32,342.9209 L41.7778,342.0882 L51.5556,342.8983 L61.3333,343.1735 L71.1111,341.6894 L80.8889,342.537 L90.6667,342.072 L100.4444,342.1293 L110.2222,342.5497 L120,341.7188 L129.7778,343.3788 L139.5556,341.8003 L149.3333,342.3769 L159.1111,343.2166 L168.8889,342.5263 L178.6667,342.7316 L188.4444,342.598 L198.2222,342.8787 L208,342.6406 " fill="#F8F8F8" style="stroke:#000000;stroke-width:1.5;"/><path d="M208,342.6406 L208.2802,342.6406 L207.4476,351.8438 L208.2577,361.0469 L208.5329,370.25 L207.0488,379.4531 L207.8964,388.6563 L208,397.8594 " fill="#F8F8F8" style="stroke:#000000;stroke-width:1.5;"/><text fill="#000000" font-family="sans-serif" font-size="14" lengthAdjust="spacing" textLength="146" x="47" y="367.1738">generate line graph file</text><text fill="#000000" font-family="sans-serif" font-size="14" lengthAdjust="spacing" textLength="29" x="47" y="384.7832">(Go)</text><!--MD5=[f879f61e2b5e5900db20bca9a7deb369]
entity file_graph--><polygon fill="#F8F8F8" points="253.5,346.1406,253.5701,346.1406,253.3619,353.6625,253.5644,361.1844,253.6332,368.7063,253.2622,376.2281,253.5,383.75,253.5,383.6723,263.375,383.3235,273.25,383.3665,283.125,383.6818,293,383.0586,302.875,384.3036,312.75,383.1197,322.625,383.5522,332.5,383.75,332.644,383.75,332.4714,378.2281,332.5227,372.7063,332.4894,367.1844,332.5595,361.6625,332.5,356.1406,332.5564,356.197,330.638,354.2787,328.6582,352.2988,326.6601,350.3007,324.56,348.2006,322.5,346.1406,322.5,346.6042,312.6429,346.8429,302.7857,345.4194,292.9286,346.8191,283.0714,345.8441,273.2143,346.6744,263.3571,345.6456,253.5,346.1406" style="stroke:#000000;stroke-width:1.5;"/><path d="M322.5,346.1406 L322.6868,346.1406 L322.1317,348.1406 L322.6718,350.1406 L322.8553,352.1406 L321.8659,354.1406 L322.5,356.1406 L322.5,356.0715 L324.5,355.7615 L326.5,355.7997 L328.5,356.08 L330.5,355.5261 L332.5,356.1406 " fill="#F8F8F8" style="stroke:#000000;stroke-width:1.5;"/><text fill="#000000" font-family="sans-serif" font-size="14" lengthAdjust="spacing" textLength="59" x="263.5" y="370.6738">graph file</text><!--MD5=[7f5370521095dc353e6ded589138aa71]
entity batch3--><polygon fill="#F8F8F8" points="368,342.6406,368.0495,342.6902,369.9023,340.543,372.0456,338.6862,374.0942,336.7348,375.8319,334.4725,378,332.6406,378,332.5629,388.4444,332.2141,398.8889,332.2571,409.3333,332.5725,419.7778,331.9493,430.2222,333.1943,440.6667,332.0103,451.1111,332.4429,461.5556,333.0726,472,332.6406,471.9142,332.6406,472.0682,341.8438,471.9681,351.0469,472.1785,360.25,472.2391,369.4531,472.5857,378.6563,472,387.8594,472.1582,388.0175,470.1601,390.0195,468.06,391.9194,466.1093,393.9686,464.1655,396.0249,462,397.8594,462,397.1382,451.5556,398.5379,441.1111,397.5629,430.6667,398.3932,420.2222,397.3644,409.7778,397.7909,399.3333,398.601,388.8889,397.8106,378.4444,397.9647,368,397.8594,368.3386,397.8594,368.4162,388.6563,367.9961,379.4531,368.2872,370.25,367.4276,361.0469,368.2844,351.8438,368,342.6406" style="stroke:#000000;stroke-width:1.5;"/><path d="M462,342.6406 L462.0661,342.7067 L463.8698,340.5104 L466.0607,338.7014 L468.1256,336.7662 L469.7758,334.4164 L472,332.6406 " fill="#F8F8F8" style="stroke:#000000;stroke-width:1.5;"/><path d="M368,342.6406 L368,342.9209 L378.4444,342.0882 L388.8889,342.8983 L399.3333,343.1735 L409.7778,341.6894 L420.2222,342.537 L430.6667,342.072 L441.1111,342.1293 L451.5556,342.5497 L462,342.6406 " fill="#F8F8F8" style="stroke:#000000;stroke-width:1.5;"/><path d="M462,342.6406 L462.2802,342.6406 L461.4476,351.8438 L462.2577,361.0469 L462.5329,370.25 L461.0488,379.4531 L461.8964,388.6563 L462,397.8594 " fill="#F8F8F8" style="stroke:#000000;stroke-width:1.5;"/><text fill="#000000" font-family="sans-serif" font-size="14" lengthAdjust="spacing" textLength="64" x="383" y="367.1738">post tweet</text><text fill="#000000" font-family="sans-serif" font-size="14" lengthAdjust="spacing" textLength="54" x="383" y="384.7832">(Python)</text><!--MD5=[ec9b5bef81a28427a4899a59f16b5de8]
entity twitter_app--><polygon fill="#F8F8F8" points="552.0442,522.0865,550.8715,523.6888,549.4845,526.0357,547.5008,527.6173,545.4163,528.4822,543.7542,528.5572,541.618,527.4756,539.6023,526.7689,538.0724,525.3342,537.2699,523.6917,536.7939,522.3839,536.3277,520.6757,535.5709,519.2057,536.1525,517.7704,536.662,516.1982,538.574,514.9548,539.9192,513.3414,541.5843,512.8057,543.5637,512.3443,546.1021,512.6184,547.4924,513.2741,549.1089,513.5713,551.0743,515.585,551.7595,517.7108,552.0571,519.1612,551.72,521.5514" style="stroke:#383838;stroke-width:1.5;"/><path d="M544,528.1406 L544.1868,528.1406 L543.6317,533.5406 L544.1718,538.9406 L544.3553,544.3406 L543.3659,549.7406 L544,555.1406 M531,536.1406 L531,536.0715 L536.2,535.7615 L541.4,535.7997 L546.6,536.08 L551.8,535.5261 L557,536.1406 M544,555.1406 L544.3719,555.4629 L540.9766,557.7737 L538.6672,561.0255 L536.4901,564.3921 L533.5424,567.0907 L531,570.1406 M544,555.1406 L544.0458,555.1804 L546.5785,558.122 L549.3199,561.2446 L551.9606,564.2798 L554.7934,567.4816 L557,570.1406 " fill="none" style="stroke:#383838;stroke-width:1.5;"/><text fill="#000000" font-family="sans-serif" font-size="14" lengthAdjust="spacing" textLength="70" x="509" y="587.1738">Twitter app</text><!--MD5=[0ed4cc9afe6600d6fd2181c977a0ad8a]
entity bme280--><polygon fill="#F8F8F8" points="508.5,74.6406,508.5495,74.6902,510.4023,72.543,512.5456,70.6862,514.5942,68.7348,516.3319,66.4725,518.5,64.6406,518.5,64.5629,528.875,64.2141,539.25,64.2571,549.625,64.5725,560,63.9493,570.375,65.1943,580.75,64.0103,591.125,64.4429,601.5,64.6406,601.9319,64.6406,601.4142,73.8438,601.5682,83.0469,601.4681,92.25,601.6785,101.4531,601.7391,110.6563,601.5,119.8594,601.638,119.9974,599.6582,122.0175,597.6601,124.0195,595.56,125.9194,593.6093,127.9686,591.5,129.8594,591.5,130.5616,581.125,129.1382,570.75,130.5379,560.375,129.5629,550,130.3932,539.625,129.3644,529.25,129.7909,518.875,130.601,508.5,129.8594,508.4513,129.8594,508.6053,120.6563,508.8386,111.4531,508.9162,102.25,508.4961,93.0469,508.7872,83.8438,508.5,74.6406" style="stroke:#000000;stroke-width:1.5;"/><path d="M591.5,74.6406 L591.5661,74.7067 L593.3698,72.5104 L595.5607,70.7014 L597.6256,68.7662 L599.2758,66.4164 L601.5,64.6406 " fill="#F8F8F8" style="stroke:#000000;stroke-width:1.5;"/><path d="M508.5,74.6406 L508.5,74.9209 L518.875,74.0882 L529.25,74.8983 L539.625,75.1735 L550,73.6894 L560.375,74.537 L570.75,74.072 L581.125,74.1293 L591.5,74.6406 " fill="#F8F8F8" style="stroke:#000000;stroke-width:1.5;"/><path d="M591.5,74.6406 L591.7802,74.6406 L590.9476,83.8438 L591.7577,93.0469 L592.0329,102.25 L590.5488,111.4531 L591.3964,120.6563 L591.5,129.8594 " fill="#F8F8F8" style="stroke:#000000;stroke-width:1.5;"/><text fill="#000000" font-family="sans-serif" font-size="14" lengthAdjust="spacing" textLength="51" x="523.5" y="99.1738">bme280</text><text fill="#000000" font-family="sans-serif" font-size="14" lengthAdjust="spacing" textLength="53" x="523.5" y="116.7832">(sensor)</text><!--MD5=[80c8e4f8e52f01c3b1e028756bd64205]
entity twitter_api--><polygon fill="#F8F8F8" points="366.5,536.6406,366.5495,536.6902,368.4023,534.543,370.5456,532.6862,372.5942,530.7348,374.3319,528.4725,376.5,526.6406,376.5,526.5629,386.2,526.2141,395.9,526.2571,405.6,526.5725,415.3,525.9493,425,527.1943,434.7,526.0103,444.4,526.4429,454.1,527.0726,463.8,526.5548,473.5,526.6406,473.5227,526.6406,473.4894,534.1625,473.5595,541.6844,473.5797,549.2063,473.6952,556.7281,473.5,564.25,473.6582,564.4082,471.6601,566.4101,469.56,568.31,467.6093,570.3593,465.6655,572.4155,463.5,574.25,463.5,573.5288,453.8,574.9285,444.1,573.9535,434.4,574.7838,424.7,573.755,415,574.1815,405.3,574.9916,395.6,574.2013,385.9,574.3553,376.2,574.5886,366.5,574.25,366.6387,574.25,366.4987,566.7281,366.5957,559.2063,366.3092,551.6844,366.5948,544.1625,366.5,536.6406" style="stroke:#000000;stroke-width:1.5;"/><path d="M463.5,536.6406 L463.5661,536.7067 L465.3698,534.5104 L467.5607,532.7014 L469.6256,530.7662 L471.2758,528.4164 L473.5,526.6406 " fill="#F8F8F8" style="stroke:#000000;stroke-width:1.5;"/><path d="M366.5,536.6406 L366.5,536.9209 L376.2,536.0882 L385.9,536.8983 L395.6,537.1735 L405.3,535.6894 L415,536.537 L424.7,536.072 L434.4,536.1293 L444.1,536.5497 L453.8,535.7188 L463.5,536.6406 " fill="#F8F8F8" style="stroke:#000000;stroke-width:1.5;"/><path d="M463.5,536.6406 L463.5934,536.6406 L463.3159,544.1625 L463.5859,551.6844 L463.6776,559.2063 L463.1829,566.7281 L463.5,574.25 " fill="#F8F8F8" style="stroke:#000000;stroke-width:1.5;"/><text fill="#000000" font-family="sans-serif" font-size="14" lengthAdjust="spacing" textLength="67" x="381.5" y="561.1738">Twitter API</text><!--MD5=[e818a57976f2515016ad900cb4d23e45]
link twitter_api to twitter_app--><path d="M473.77,550.6406 L473.77,550.734 L479.75,550.4565 L485.73,550.7265 L491.71,550.8183 L497.69,550.3236 L503.67,550.6406 " fill="none" style="stroke:#383838;stroke-width:1.0;"/><polygon fill="#383838" points="508.88,550.6406,508.9085,550.7046,507.0239,549.7144,505.3062,549.0995,503.5341,548.3624,501.5834,547.2233,499.88,546.6406,499.8617,546.6223,500.5795,547.3401,501.3896,548.1502,502.2639,549.0246,502.917,549.6777,503.88,550.6406,504.0105,550.7711,502.9314,551.2921,502.2334,552.194,501.5818,553.1424,500.6598,553.8204,499.88,554.6406,499.8892,554.6614,501.6757,553.8309,503.5042,553.095,505.3124,552.3135,507.1593,551.619,508.88,550.6406" style="stroke:#383838;stroke-width:1.0;"/><!--MD5=[85f22de3b6ffab2d979483f69ae49e8c]
link bme280 to batch1--><path d="M508.4,97.1406 L508.4,97.4209 L498.18,96.5882 L487.96,97.3983 L477.74,97.6735 L467.52,96.1894 L457.3,97.037 L447.08,96.572 L436.86,96.6293 L426.64,97.0497 L416.42,96.2188 L406.2,97.8788 L395.98,96.3003 L385.76,96.8769 L375.54,97.7166 L365.32,97.1406 " fill="none" style="stroke:#383838;stroke-width:1.0;"/><polygon fill="#383838" points="360.23,97.1406,360.2585,97.2046,361.9739,97.8144,363.8562,98.7995,365.6841,99.6624,367.3334,100.1233,369.23,101.1406,369.2117,101.1223,368.3295,100.2401,367.5396,99.4502,366.8139,98.7246,365.867,97.7777,365.23,97.1406,365.3605,97.2711,365.8814,96.1921,366.7834,95.494,367.7318,94.8424,368.4098,93.9204,369.23,93.1406,369.2392,93.1614,367.4257,93.9309,365.6542,94.795,363.8624,95.6135,362.1093,96.519,360.23,97.1406" style="stroke:#383838;stroke-width:1.0;"/><text fill="#000000" font-family="sans-serif" font-size="13" lengthAdjust="spacing" textLength="112" x="378.25" y="74.6357">temp/pressure/hum</text><text fill="#000000" font-family="sans-serif" font-size="13" lengthAdjust="spacing" textLength="106" x="381.25" y="90.9873">(am 9:00/pm 6:00)</text><!--MD5=[cc176296f0786d623b03fb8eb9fe6096]
link batch1 to db--><path d="M282,129.7606 L282.2802,129.7606 L281.4476,140.1163 L282.2577,150.4721 L282.5329,160.8278 L281.0488,171.1835 L281.8964,181.5392 L281.4313,191.8949 L282,202.2506 " fill="none" style="stroke:#383838;stroke-width:1.0;"/><polygon fill="#383838" points="282,207.4606,282.064,207.4891,282.6738,205.6045,283.6589,203.8868,284.5217,202.1147,284.9827,200.164,286,198.4606,285.9817,198.4423,285.0995,199.1601,284.3096,199.9702,283.5839,200.8446,282.637,201.4977,282,202.4606,282.1305,202.5911,281.0514,201.5121,280.3534,200.814,279.7018,200.1624,278.7798,199.2404,278,198.4606,278.0208,198.4699,278.7903,200.2563,279.6544,202.0848,280.4728,203.893,281.3784,205.7399,282,207.4606" style="stroke:#383838;stroke-width:1.0;"/><text fill="#000000" font-family="sans-serif" font-size="13" lengthAdjust="spacing" textLength="61" x="283" y="174.1357">latest data</text><!--MD5=[76960a909b70193f5170820333fe111d]
link db to batch2--><path d="M255.01,254.8306 L255.1903,255.0451 L247.2845,260.6045 L240.4359,267.4212 L233.243,273.8285 L224.9179,278.8892 L218.0933,285.7346 L210.424,291.5754 L203.0909,297.8159 L195.9915,304.3344 L188.0868,309.8951 L181.7851,317.3623 L173.3992,322.3507 L166.57,329.1906 " fill="none" style="stroke:#383838;stroke-width:1.0;"/><polygon fill="#383838" points="162.5,332.6106,162.5194,332.678,164.3548,331.9332,166.3037,331.5832,168.2157,331.1046,170.0061,330.2034,171.9648,329.8872,171.9626,329.8614,170.8254,329.6473,169.6995,329.5632,168.5816,329.5696,167.4364,329.2644,166.3294,329.3957,166.5132,329.4117,166.2184,328.2503,166.4603,327.1358,166.7677,326.0269,166.6941,324.8848,166.8209,323.7602,166.8413,323.7702,165.9472,325.5256,165.146,327.3265,164.3,329.1054,163.5396,330.9262,162.5,332.6106" style="stroke:#383838;stroke-width:1.0;"/><text fill="#000000" font-family="sans-serif" font-size="13" lengthAdjust="spacing" textLength="61" x="219" y="299.1357">10 records</text><!--MD5=[4a1c9f3b996799af7b1fe8fc71df80fb]
link batch2 to file_graph--><path d="M218.19,365.1406 L218.19,365.234 L224.162,364.9565 L230.134,365.2265 L236.106,365.3183 L242.078,364.8236 L248.05,365.1406 " fill="none" style="stroke:#383838;stroke-width:1.0;"/><polygon fill="#383838" points="253.26,365.1406,253.2885,365.2046,251.4039,364.2144,249.6862,363.5995,247.9141,362.8624,245.9634,361.7233,244.26,361.1406,244.2417,361.1223,244.9595,361.8401,245.7696,362.6502,246.6439,363.5246,247.297,364.1777,248.26,365.1406,248.3905,365.2711,247.3114,365.7921,246.6134,366.694,245.9618,367.6424,245.0398,368.3204,244.26,369.1406,244.2692,369.1614,246.0557,368.3309,247.8842,367.595,249.6924,366.8135,251.5393,366.119,253.26,365.1406" style="stroke:#383838;stroke-width:1.0;"/><!--MD5=[d3e879e52a64559bc9dcac29297e996b]
link db to batch3--><path d="M305.72,254.8306 L305.9137,255.0331 L312.3782,261.165 L319.9781,268.4841 L327.2083,275.4166 L333.2225,281.0778 L340.8484,288.4239 L347.5669,294.8215 L354.6466,301.5966 L361.9772,308.634 L368.4428,314.7672 L376.6302,322.7004 L383.16,328.9006 " fill="none" style="stroke:#383838;stroke-width:1.0;"/><polygon fill="#383838" points="387.04,332.6106,387.1048,332.6372,386.1645,330.7359,385.6041,328.9905,384.9199,327.1943,383.8289,325.2311,383.3011,323.4991,383.2752,323.4985,383.1841,324.627,383.2236,325.7584,383.3538,326.8918,383.1713,328.0183,383.4268,329.1545,383.4309,329.339,382.291,328.9696,381.1631,329.1389,380.0367,329.3739,378.9018,329.2265,377.7713,329.2802,377.779,329.3016,379.6215,329.9363,381.4989,330.6684,383.3595,331.3535,385.2523,332.1283,387.04,332.6106" style="stroke:#383838;stroke-width:1.0;"/><text fill="#000000" font-family="sans-serif" font-size="13" lengthAdjust="spacing" textLength="72" x="357" y="299.1357">latest record</text><!--MD5=[00ad73a399a93e3780968ea872e81a01]
link file_graph to batch3--><path d="M332.69,365.1406 L332.69,365.234 L338.672,364.9565 L344.654,365.2265 L350.636,365.3183 L356.618,364.8236 L362.6,365.1406 " fill="none" style="stroke:#383838;stroke-width:1.0;"/><polygon fill="#383838" points="367.82,365.1406,367.8485,365.2046,365.9639,364.2144,364.2462,363.5995,362.4741,362.8624,360.5234,361.7233,358.82,361.1406,358.8017,361.1223,359.5195,361.8401,360.3296,362.6502,361.2039,363.5246,361.857,364.1777,362.82,365.1406,362.9505,365.2711,361.8714,365.7921,361.1734,366.694,360.5218,367.6424,359.5998,368.3204,358.82,369.1406,358.8292,369.1614,360.6157,368.3309,362.4442,367.595,364.2524,366.8135,366.0993,366.119,367.82,365.1406" style="stroke:#383838;stroke-width:1.0;"/><!--MD5=[df1749e30dc178c3c364cbe7949dfbd9]
link batch3 to twitter_api--><path d="M420,397.6806 L420.2802,397.6806 L419.4476,407.9956 L420.2577,418.3106 L420.5329,428.6256 L419.0488,438.9406 L419.8964,449.2556 L419.4313,459.5706 L419.4887,469.8856 L419.9091,480.2006 L419.0782,490.5156 L420.7382,500.8306 L419.1596,511.1456 L420,521.4606 " fill="none" style="stroke:#383838;stroke-width:1.0;"/><polygon fill="#383838" points="420,526.6206,420.064,526.6491,420.6738,524.7645,421.6589,523.0468,422.5217,521.2747,422.9827,519.324,424,517.6206,423.9817,517.6023,423.0995,518.3201,422.3096,519.1302,421.5839,520.0046,420.637,520.6577,420,521.6206,420.1305,521.7511,419.0514,520.6721,418.3534,519.974,417.7018,519.3224,416.7798,518.4004,416,517.6206,416.0208,517.6299,416.7903,519.4163,417.6544,521.2448,418.4728,523.053,419.3784,524.8999,420,526.6206" style="stroke:#383838;stroke-width:1.0;"/><text fill="#000000" font-family="sans-serif" font-size="13" lengthAdjust="spacing" textLength="112" x="421" y="444.1357">temp/pressure/hum</text><text fill="#000000" font-family="sans-serif" font-size="13" lengthAdjust="spacing" textLength="9" x="472.5" y="460.4873">&amp;</text><text fill="#000000" font-family="sans-serif" font-size="13" lengthAdjust="spacing" textLength="52" x="451" y="476.8389">graph file</text><!--MD5=[4d828df32d4a739697d7e60bef529517]
@startuml

!include ./skin.pu

title "Data Flow"

actor "Twitter app" as twitter_app

node "bme280\n(sensor)" as bme280
node "Twitter API" as twitter_api
twitter_api -> twitter_app

package "Raspberry Pi 4" as pi {
  database "SQLite" as db
  node "get and store data\n(Python)" as batch1
  bme280 -> batch1: "temp/pressure/hum\n(am 9:00/pm 6:00)"
  batch1 - -> db: "latest data"

  node "generate line graph file\n(Go)" as batch2
  db - -> batch2: "10 records"
  file "graph file" as file_graph
  batch2 -> file_graph

  node "post tweet\n(Python)" as batch3
  db - -> batch3: "latest record"
  file_graph -> batch3
  batch3 - -> twitter_api: "temp/pressure/hum\n&\ngraph file"
}

@enduml

@startuml


skinparam monochrome true

skinparam shadowing false

skinparam handwritten true


title "Data Flow"

actor "Twitter app" as twitter_app

node "bme280\n(sensor)" as bme280
node "Twitter API" as twitter_api
twitter_api -> twitter_app

package "Raspberry Pi 4" as pi {
  database "SQLite" as db
  node "get and store data\n(Python)" as batch1
  bme280 -> batch1: "temp/pressure/hum\n(am 9:00/pm 6:00)"
  batch1 - -> db: "latest data"

  node "generate line graph file\n(Go)" as batch2
  db - -> batch2: "10 records"
  file "graph file" as file_graph
  batch2 -> file_graph

  node "post tweet\n(Python)" as batch3
  db - -> batch3: "latest record"
  file_graph -> batch3
  batch3 - -> twitter_api: "temp/pressure/hum\n&\ngraph file"
}

@enduml

PlantUML version 1.2022.0(Wed Jan 12 01:16:42 JST 2022)
(GPL source distribution)
Java Runtime: Java(TM) SE Runtime Environment
JVM: Java HotSpot(TM) 64-Bit Server VM
Default Encoding: MS932
Language: ja
Country: JP
--></g></svg>